<?xml version="1.0" encoding="utf-8"?>
<!-- Generator: Adobe Illustrator 24.3.0, SVG Export Plug-In . SVG Version: 6.00 Build 0)  -->
<svg version="1.1" id="Livello_1" xmlns="http://www.w3.org/2000/svg" xmlns:xlink="http://www.w3.org/1999/xlink" x="0px" y="0px"
	 viewBox="0 0 283.5 283.5" xml:space="preserve">
<style type="text/css">
	.st0{fill:white;}
</style>
<g>
	<g>
		<path class="st0" d="M141.7,3.2C68,3.2,8,60.6,3.2,133.2h107.4c4.4,0,7.8,3.3,7.8,7.8c0,4.4-3.3,7.8-7.8,7.8H3.2
			c0.4,5.2,0.7,10.4,1.5,15.6h136.7c4.4,0,7.8,3.3,7.8,7.8c0,4.4-3.3,7.8-7.8,7.8H8c1.5,5.2,3.3,10.4,5.6,15.6h182.2
			c17,0,31.1-13.7,31.1-31.1c0-17-13.7-31.1-31.1-31.1h-0.4c-4.1,0-7.4-3-7.8-7c-3.3-31.5-30-55.2-61.9-55.2
			C99.1,71,75,88,66.9,113.5c-1.1,4.1-5.6,6.7-9.6,5.2c-4.1-1.1-6.7-5.6-5.2-9.6c0-0.4,0-0.4,0-0.7c13.3-40.7,57.4-62.6,98.2-49.3
			c26.7,8.9,46.3,31.1,51.9,58.5c25.6,3.3,43.3,27,40,52.2c-3,23-23,40.4-46.3,40.4H20.9c24.1,41.9,68.9,70,120.4,70
			c76.7,0,138.9-62.2,138.9-138.9C280.6,65,218.4,3.2,141.7,3.2z"/>
	</g>
</g>
</svg>
